<svg width="800" height="1000" viewBox="0 0 800 1000" fill="none" xmlns="http://www.w3.org/2000/svg">
  <rect width="800" height="1000" rx="56" fill="#F3EBDF"/>
  <rect x="118" y="96" width="564" height="808" rx="44" fill="#FFFCF7"/>
  <path d="M320 272C320 228.922 354.922 194 398 194H402C445.078 194 480 228.922 480 272V338L528 412V734H272V412L320 338V272Z" fill="#E1C7B7"/>
  <path d="M360 236C360 214.46 377.46 197 399 197H401C422.54 197 440 214.46 440 236V280H360V236Z" fill="#32241E"/>
  <path d="M302 344H498V472C498 564.784 422.784 640 330 640H302V344Z" fill="#F7EDE4"/>
  <path d="M498 344H302V472C302 564.784 377.216 640 470 640H498V344Z" fill="#DFC0AA"/>
  <path d="M330 640H470L510 760H290L330 640Z" fill="#CFA584"/>
  <path d="M302 344L246 434H302L342 382L302 344Z" fill="#CAA388"/>
  <path d="M498 344L554 434H498L458 382L498 344Z" fill="#CAA388"/>
</svg>
